<?xml version="1.0" encoding="UTF-8"?>
<svg id="Layer_2_Image" data-name="Layer 2 Image" xmlns="http://www.w3.org/2000/svg" viewBox="0 0 1080 1080">
  <path d="M603.07,1080H0V0h1080v1080h-476.93ZM723.44,633.29c43.58-11.98,81.74-33.31,111.39-67.73,25.96-30.13,40.82-64.42,32.05-105.41-1.92-8.97-4.55-17.8-7.33-28.56-9.05,37.84-21.52,70.54-51.63,94.29-27.58,21.75-57.8,35.13-93.22,33.95-25.38-.84-49.8-7.74-72.91-17.73-22.04-9.52-43.42-20.75-64.46-32.36-26.04-14.36-52.6-27.06-82.34-31.09-16.09-2.18-32.39-2.85-49.5-4.28,2.22-9.19,4.31-18.49,6.75-27.7,2.1-7.95,1.59-8.59-6.22-6.86-8.42,1.87-16.91,3.46-25.33,5.36-34.48,7.75-68.91,15.74-103.45,23.23-7.52,1.63-7.54,4.17-3.46,9.55,6.49,8.57,12.6,17.43,19.57,27.14-26.15,5.33-51.47,10.48-79.06,16.1,2.89,1.97,4.46,2.73,5.63,3.89,24.89,24.72,49.65,49.57,74.62,74.21,15.87,15.66,31.98,31.08,48.2,46.38,1.22,1.15,4.57,1.3,6.25.5,21.69-10.29,42.91-21.64,64.96-31.08,19.18-8.21,39.7-12.9,60.68-8.73,18.44,3.66,36.51,9.14,54.76,13.73,19.57,4.92,39.03,10.43,58.78,14.45,31.47,6.4,63.1,8.51,95.28-1.24Z" stroke-width="0"/>
  <path d="M723.06,633.43c-31.79,9.62-63.43,7.51-94.89,1.11-19.76-4.02-39.21-9.53-58.78-14.45-18.25-4.59-36.33-10.07-54.76-13.73-20.98-4.17-41.5.52-60.68,8.73-22.05,9.43-43.27,20.79-64.96,31.08-1.69.8-5.04.65-6.25-.5-16.22-15.3-32.33-30.72-48.2-46.38-24.97-24.64-49.73-49.49-74.62-74.21-1.17-1.16-2.74-1.92-5.63-3.89,27.58-5.62,52.91-10.77,79.06-16.1-6.98-9.72-13.09-18.57-19.57-27.14-4.07-5.38-4.06-7.92,3.46-9.55,34.54-7.49,68.97-15.48,103.45-23.23,8.42-1.89,16.9-3.49,25.33-5.36,7.81-1.73,8.32-1.09,6.22,6.86-2.43,9.21-4.52,18.51-6.75,27.7,17.11,1.43,33.4,2.1,49.5,4.28,29.74,4.03,56.31,16.72,82.34,31.09,21.04,11.61,42.42,22.84,64.46,32.36,23.11,9.99,47.53,16.89,72.91,17.73,35.42,1.18,65.64-12.2,93.22-33.95,30.12-23.75,42.58-56.45,51.63-94.29,2.78,10.76,5.41,19.58,7.33,28.56,8.77,41-6.09,75.28-32.05,105.41-29.65,34.41-67.81,55.75-111.78,67.86ZM523.88,510.63c-33.38-11.93-67.64-8.99-102.47-5.59,3.21-14.77,6.31-29.01,9.52-43.78-32.18,6.99-63.66,13.83-95.73,20.8,8.95,12.16,16.96,23.06,25.39,34.52-22.85,4.96-44.86,9.73-67.25,14.59.83,1.8.93,2.34,1.25,2.66,15.04,14.83,30.1,29.64,45.16,44.46,14.72,14.49,29.78,28.64,43.93,43.66,4.35,4.61,6.72,4.3,11.58,1.57,15.31-8.6,30.61-17.33,46.54-24.67,28.53-13.14,58.34-15.6,88.83-7.59,36.81,9.67,73.49,19.89,110.43,29.07,21.56,5.36,43.56,10.03,65.92,5.07,43.26-9.6,81.62-28.97,114.31-59.09,19.82-18.26,34.89-39.58,40.85-66.33,3.06-13.71,3.22-27.44-1.98-41.81-4.31,9.65-8.13,18.38-12.09,27.04-11.38,24.91-28.02,45.41-51.09,60.46-31.52,20.55-65.63,32.36-103.6,27.31-28.95-3.85-55.97-14.69-82.67-26.35-28.46-12.43-57.36-23.85-86.82-36Z" fill="#fbfbfb" stroke-width="0"/>
  <path d="M524.26,510.77c29.09,12,57.99,23.42,86.45,35.85,26.7,11.66,53.72,22.5,82.67,26.35,37.97,5.05,72.08-6.76,103.6-27.31,23.07-15.04,39.71-35.54,51.09-60.46,3.96-8.67,7.78-17.39,12.09-27.04,5.2,14.37,5.03,28.11,1.98,41.81-5.96,26.75-21.04,48.07-40.85,66.33-32.69,30.13-71.05,49.49-114.31,59.09-22.36,4.96-44.36.29-65.92-5.07-36.94-9.17-73.62-19.39-110.43-29.07-30.49-8.01-60.3-5.56-88.83,7.59-15.93,7.34-31.23,16.07-46.54,24.67-4.86,2.73-7.23,3.04-11.58-1.57-14.15-15.02-29.22-29.18-43.93-43.66-15.05-14.82-30.12-29.63-45.16-44.46-.32-.32-.42-.87-1.25-2.66,22.39-4.86,44.41-9.63,67.25-14.59-8.43-11.46-16.45-22.36-25.39-34.52,32.07-6.97,63.55-13.81,95.73-20.8-3.21,14.77-6.31,29.02-9.52,43.78,34.83-3.4,69.09-6.34,102.85,5.73Z" stroke-width="0"/>
</svg>