<?xml version="1.0" encoding="UTF-8"?>
<svg id="Layer_2_Image" data-name="Layer 2 Image" xmlns="http://www.w3.org/2000/svg" viewBox="0 0 613.82 215.79">
  <path d="M0,88.8c26.13-5.28,51.53-10.4,77.48-15.65-8.19-11.61-15.91-22.54-24.47-34.66,48.96-11.09,96.47-21.85,143.98-32.62l1.47,1.52c-2.75,11.59-5.5,23.17-8.36,35.21,8.93.54,17.33,1.15,25.74,1.54,26.39,1.23,51.9,6.55,75.72,18.04,16.77,8.08,33.15,17.06,49.27,26.39,25.34,14.66,52.19,25.47,80.38,32.95,18.2,4.83,36.62,7.36,55.72,5.36,25.65-2.69,47.77-12.78,68.23-27.96,13.92-10.32,27.23-21.23,35.15-36.81,7.12-14.01,12.87-28.74,18.65-43.39,2.16-5.48,2.7-11.59,4.26-18.72,1.79,4.56,3.65,8.15,4.63,11.97,5.59,21.76,8.78,43.67,2.59,65.89-3.96,14.2-10.66,27.13-18.66,39.45-11.95,18.39-27.55,33.12-44.97,46.28-29.34,22.18-62.55,35.11-98.22,42.42-15.48,3.17-31.17,3.05-46.69.83-19.01-2.73-37.95-6.06-56.8-9.77-9.89-1.95-19.48-5.37-29.26-7.94-19.18-5.05-38.23-10.83-57.64-14.72-20.48-4.1-40.18,1.63-59.41,8.47-23.05,8.19-44.82,19.05-65.6,31.9-2.68,1.66-4.43,1.2-6.51-.85-13.09-12.8-26.36-25.42-39.38-38.28C58.87,147.57,30.56,119.38,2.2,91.23c-.58-.57-1.1-1.21-2.2-2.42h0ZM604.71,27.09c-6,12.48-11.85,25.18-18.17,37.63-9.77,19.27-24.37,34.35-41.78,46.87-16.94,12.19-35.64,20.19-55.79,25.84-17.92,5.03-35.78,6.28-53.75,3.4-28.51-4.58-55.38-14.72-81.53-26.79-23.99-11.07-47.52-23.22-72.88-31.08-15.72-4.87-31.22-11.22-47.85-11.67-17.91-.48-35.87.42-53.8.83-4.41.1-8.81.66-13.49,1.02,3.22-14.75,6.32-28.93,9.51-43.54-31.83,6.89-63.28,13.69-95.23,20.61,8.81,11.98,16.91,22.97,25.38,34.49-23.12,5.01-45.1,9.76-67.08,14.52-.04.55-.09,1.11-.13,1.66,1.85,1.66,3.79,3.25,5.55,5,28.18,27.89,56.37,55.77,84.5,83.71,5.39,5.36,5.31,5.57,12,1.35,16.18-10.18,32.73-19.48,50.71-26.33,24.5-9.34,49.47-12.93,75.2-7.36,14.55,3.15,28.74,7.96,43.21,11.53,32.77,8.09,65.59,16,98.44,23.75,17.15,4.04,34.51,3.9,51.44-.75,40.92-11.24,78.05-29.82,108.78-59.62,20.46-19.84,35.88-42.83,39.79-71.88,1.53-11.34,1.1-22.71-3.02-33.21v.02Z" stroke-width="0"/>
  <path d="M604.71,27.09c4.12,10.5,4.55,21.87,3.02,33.21-3.92,29.05-19.34,52.04-39.79,71.88-30.73,29.8-67.86,48.38-108.78,59.62-16.93,4.65-34.29,4.8-51.44.75-32.85-7.75-65.67-15.66-98.44-23.75-14.47-3.57-28.65-8.39-43.21-11.53-25.73-5.56-50.69-1.98-75.2,7.36-17.97,6.85-34.53,16.15-50.71,26.33-6.69,4.21-6.61,4-12-1.35-28.12-27.95-56.31-55.83-84.5-83.71-1.77-1.75-3.7-3.34-5.55-5,.04-.55.09-1.11.13-1.66,21.98-4.76,43.95-9.51,67.08-14.52-8.48-11.52-16.57-22.51-25.38-34.49,31.95-6.91,63.41-13.72,95.23-20.61-3.19,14.61-6.29,28.79-9.51,43.54,4.68-.37,9.08-.92,13.49-1.02,17.93-.41,35.89-1.31,53.8-.83,16.63.45,32.13,6.8,47.85,11.67,25.36,7.85,48.9,20,72.88,31.08,26.16,12.07,53.02,22.21,81.53,26.79,17.97,2.89,35.83,1.63,53.75-3.4,20.16-5.66,38.85-13.66,55.79-25.84,17.41-12.52,32-27.61,41.78-46.87,6.32-12.46,12.16-25.15,18.17-37.63v-.02Z" fill="#fff" stroke-width="0"/>
</svg>